<svg xmlns="http://www.w3.org/2000/svg" width="167" height="167" fill="none"><g opacity=".6"><path fill="#424928" d="m50.617 19.963-5.002-11.01 7.005-3.196.744 1.652-5.122 2.342 1.488 3.284 4.827-2.189.733 1.63-4.826 2.19 2.035 4.465-1.882.832ZM63.884 15.027c-3.141.886-6.074-1.018-7.06-4.487-.984-3.47.515-6.644 3.667-7.53 3.152-.887 6.096.996 7.081 4.487.985 3.491-.536 6.643-3.688 7.53Zm-2.9-10.255c-2.047.58-2.868 2.736-2.19 5.199.68 2.462 2.529 3.874 4.575 3.283 2.047-.591 2.89-2.747 2.19-5.21-.701-2.462-2.529-3.852-4.575-3.272ZM69.268 1.138l2.036-.251 1.27 10.167 5.767-.722.23 1.817-7.803.963-1.5-11.974ZM80.377 0h2.047l-.164 10.255 5.8.098v1.828l-7.88-.033L80.377 0ZM93.98 13.155c-3.284-.492-5.123-3.447-4.575-7.015C89.952 2.572 92.61.317 95.85.799c3.24.482 5.133 3.437 4.597 7.015-.537 3.58-3.24 5.823-6.469 5.341Zm1.597-10.54c-2.101-.317-3.743 1.303-4.126 3.831-.383 2.528.7 4.608 2.758 4.892 2.058.285 3.765-1.302 4.148-3.83.383-2.528-.678-4.575-2.78-4.892ZM111.614 5.001l-.788 9.161 5.002-7.661 1.861.657-6.94 10.386-1.784-.635.712-8.909-5.057 7.388-1.762-.613 1.095-12.444 1.893.668-.919 9.15 5.122-7.662 1.565.514ZM125.664 26.376c-2.627-1.948-2.889-5.472-.734-8.34 2.156-2.867 5.582-3.622 8.208-1.663 2.627 1.959 2.912 5.472.745 8.35-2.167 2.879-5.604 3.634-8.219 1.653Zm6.37-8.537c-1.697-1.27-3.919-.612-5.473 1.445-1.554 2.058-1.533 4.378.175 5.626 1.707 1.247 3.929.634 5.472-1.423 1.544-2.058 1.533-4.345-.174-5.626v-.022ZM134.705 27.175l5.243-5.034 1.412 1.477-5.079 4.881c-1.685 1.61-1.783 3.076-.525 4.378 1.259 1.303 2.714 1.27 4.378-.34l5.09-4.88 1.411 1.477-5.253 5.046c-2.386 2.298-4.97 2.057-6.972 0-2.003-2.058-2.112-4.696.295-7.005ZM144.348 37.934l-4.018 2.823-1.17-1.674 9.85-6.96 2.681 3.819c1.434 2.046 1.335 4.093-.602 5.472a3.276 3.276 0 0 1-2.424.7 3.278 3.278 0 0 1-2.205-1.226l-2.058 5.736-1.335-1.905 2.079-5.57-.798-1.215Zm1.4-.985 1.489 2.112a1.879 1.879 0 0 0 1.229.864 1.876 1.876 0 0 0 1.469-.319 1.864 1.864 0 0 0 .692-2.061 1.869 1.869 0 0 0-.369-.673l-1.478-2.101-3.032 2.178ZM152.423 55.007a1.831 1.831 0 0 0-1.242 1.718c-.003.252.049.502.147.733.493 1.292 1.457 1.642 3.065 1.095l7.421-2.77.71 1.916-7.42 2.769c-2.692 1.007-4.64 0-5.471-2.277a3.755 3.755 0 0 1 .752-4.297c.369-.365.809-.649 1.294-.835l.744 1.948ZM152.685 68.6c-.668-3.196 1.434-5.997 4.957-6.742 3.525-.744 6.567.974 7.257 4.17.689 3.196-1.4 6.009-4.946 6.764-3.546.755-6.589-.996-7.268-4.192Zm10.43-2.189c-.437-2.08-2.539-3.042-5.046-2.517-2.506.525-4.026 2.255-3.589 4.378.437 2.123 2.539 3.064 5.046 2.539 2.506-.525 4.026-2.32 3.632-4.41l-.043.01ZM158.956 75.145l7.256-.307.098 2.047-7.059.306c-2.319.099-3.359 1.095-3.283 2.933.077 1.84 1.204 2.758 3.525 2.66l7.047-.306.088 2.046-7.289.317c-3.283.132-5.078-1.74-5.198-4.64-.121-2.9 1.488-4.914 4.815-5.056ZM159.09 89.59l-4.882-.535.219-2.036 12.038 1.313-.503 4.64c-.273 2.485-1.707 3.963-4.049 3.7a3.288 3.288 0 0 1-2.282-1.073 3.305 3.305 0 0 1-.849-2.374l-5.34 2.944.251-2.31 5.243-2.823.154-1.445Zm1.695.187-.273 2.56c-.154 1.358.493 2.19 1.609 2.321 1.116.132 1.927-.569 2.068-1.915l.285-2.572-3.689-.394ZM150.618 106.774l.416-1.521 10.123-3.645-8.492-2.33.514-1.894 11.667 3.185-.504 1.86-9.641 3.415 8.098 2.189-.514 1.904-11.667-3.163ZM157.623 120.947l-1.652-.733 2.396-5.374-2.867-1.302-2.189 4.87-1.642-.722 2.19-4.881-3.164-1.412-2.397 5.384-1.674-.744 3.207-7.212 11.042 4.914-3.25 7.212ZM151.92 130.469l-1.159 1.838-3.787-7.606-4.083-2.582 1.095-1.72 4.082 2.584 8.482.197-1.193 1.882-6.293-.185 2.856 5.592ZM114.085 147.52l4.695 11.142-7.125 2.988-.7-1.664 5.231-2.19-1.39-3.283-4.881 2.058-.701-1.652 4.893-2.058-1.905-4.521 1.883-.82ZM100.69 152.073c3.163-.798 6.053 1.193 6.928 4.695.876 3.503-.7 6.622-3.874 7.421-3.174.798-6.063-1.172-6.95-4.685-.886-3.513.7-6.632 3.896-7.431Zm2.605 10.343c2.069-.526 2.955-2.66 2.32-5.145-.634-2.483-2.418-3.94-4.476-3.414-2.057.525-2.966 2.659-2.342 5.144.624 2.485 2.441 3.93 4.498 3.415ZM94.92 165.787l-2.035.197-.985-10.211-5.779.558-.175-1.828 7.815-.755 1.16 12.039ZM83.823 166.596l-2.046-.076.372-10.255-5.812-.209.066-1.838 7.858.295-.438 12.083ZM70.55 153.091c3.217.591 5.023 3.589 4.377 7.147-.646 3.556-3.382 5.734-6.567 5.143-3.185-.591-5.034-3.567-4.378-7.135.657-3.569 3.35-5.736 6.567-5.155Zm-1.894 10.496c2.09.372 3.775-1.204 4.235-3.722.46-2.516-.569-4.585-2.66-4.968-2.09-.384-3.808 1.192-4.257 3.72-.448 2.528.591 4.564 2.682 4.97ZM52.71 160.741l1.093-9.138-5.23 7.54-1.84-.711 7.235-10.178 1.773.667-.963 8.898 5.264-7.246 1.751.669-1.51 12.411-1.872-.712 1.095-9.105-5.341 7.496-1.456-.591ZM39.267 138.94c2.561 2.035 2.726 5.526.493 8.362-2.233 2.834-5.68 3.458-8.252 1.432-2.572-2.023-2.758-5.526-.503-8.372 2.254-2.845 5.69-3.448 8.262-1.422Zm-6.566 8.362c1.674 1.313 3.907.722 5.472-1.293 1.565-2.013 1.653-4.311 0-5.635-1.653-1.325-3.918-.734-5.472 1.28-1.554 2.014-1.718 4.322-.055 5.648h.055ZM30.252 137.911l-5.385 4.893-1.38-1.511 5.232-4.74c1.719-1.564 1.86-3.02.646-4.377-1.215-1.357-2.692-1.346-4.378.219l-5.198 4.739-1.38-1.521 5.396-4.892c2.452-2.189 5.024-1.927 6.972.218 1.948 2.146 1.937 4.74-.525 6.972ZM20.883 126.879l4.093-2.704 1.095 1.708-10.025 6.654-2.572-3.896c-1.38-2.09-1.215-4.126.755-5.472a3.274 3.274 0 0 1 2.44-.629 3.277 3.277 0 0 1 2.168 1.286l2.189-5.67 1.28 1.937-2.244 5.473.821 1.313Zm-1.433.941-1.423-2.188a1.868 1.868 0 0 0-2.728-.763 1.878 1.878 0 0 0-.752 2.115c.08.258.214.494.393.694l1.423 2.189 3.087-2.047ZM13.32 109.554a1.841 1.841 0 0 0 1.095-2.43c-.438-1.302-1.4-1.685-3.032-1.094l-7.464 2.539-.656-1.948 7.497-2.539c2.725-.92 4.651.087 5.472 2.44a3.768 3.768 0 0 1-.871 4.279 3.76 3.76 0 0 1-1.318.799l-.722-2.046ZM13.451 95.961c.58 3.218-1.609 5.954-5.155 6.567-3.546.613-6.566-1.171-7.135-4.378-.57-3.207 1.587-5.965 5.154-6.567 3.568-.602 6.556 1.16 7.136 4.378ZM2.966 97.854c.373 2.09 2.441 3.12 4.97 2.671 2.527-.449 4.092-2.19 3.72-4.236-.372-2.046-2.451-3.152-5.001-2.692-2.55.46-4.06 2.156-3.689 4.257ZM7.388 89.307l-7.3.109v-2.047l7.048-.11c2.33 0 3.393-1.039 3.36-2.856-.033-1.816-1.095-2.769-3.448-2.736L0 81.777V79.73l7.289-.12c3.283 0 5.024 1.871 5.078 4.772.055 2.9-1.652 4.87-4.98 4.925ZM7.663 74.805l4.859.679-.285 2.025L.264 75.844.9 71.248c.35-2.473 1.817-3.907 4.159-3.579a3.282 3.282 0 0 1 3.031 3.58l5.473-2.791-.34 2.243-5.362 2.66-.197 1.444Zm-1.697-.273.35-2.561a1.837 1.837 0 0 0-1.532-2.364c-1.094-.154-1.948.514-2.134 1.86l-.372 2.594 3.688.47ZM16.614 57.885l-.46 1.51-10.232 3.36 8.394 2.562-.569 1.893-11.546-3.524.569-1.85 9.718-3.14-8.022-2.441.58-1.883 11.569 3.513ZM10.014 43.515l1.63.788-2.55 5.308 2.879 1.38 2.342-4.806 1.62.767-2.31 4.815 3.12 1.5 2.55-5.309 1.652.8-3.458 7.168L6.654 50.64l3.36-7.125ZM15.99 34.168l1.214-1.794 3.568 7.66 4.005 2.759-1.094 1.685-3.995-2.703-8.47-.427 1.203-1.839 6.271.329-2.703-5.67Z" opacity=".6"/><path fill="#8E9373" d="M36.764 27.197c-2.408 2.463-8.22 2.463-8.22 2.463s0-5.812 2.375-8.23c2.375-2.42 4.75-2.19 6.37-.537s1.893 3.885-.525 6.304Z" opacity=".57"/><path stroke="#424928" stroke-width=".417" d="M38.842 20.904c-2.139.991-4.07 2.38-5.69 4.093" opacity=".6"/><path stroke="#424928" stroke-width=".417" d="M36.696 27.131a9.39 9.39 0 0 1-4.968 2.08 19.47 19.47 0 0 1-2.19.262h-.842v-.843c.033-.755.11-1.507.23-2.254a9.534 9.534 0 0 1 2.068-4.969 5.156 5.156 0 0 1 3.415-1.75 3.802 3.802 0 0 1 2.802 1.247 3.747 3.747 0 0 1 1.182 2.813 5.155 5.155 0 0 1-1.697 3.414Z" opacity=".6"/><path stroke="#424928" stroke-width=".417" d="M35.23 25.599s.7-1.915 0-2.616c-.7-.7-2.189 0-2.189 0" opacity=".6"/><path fill="#8E9373" d="M131.037 138.36c2.134-2.671 7.913-3.284 7.913-3.284s.667 5.768-1.467 8.438c-2.134 2.672-4.476 2.66-6.261 1.238-1.783-1.423-2.319-3.721-.185-6.392Z" opacity=".57"/><path stroke="#424928" stroke-width=".417" d="M129.671 144.893a18.603 18.603 0 0 0 5.21-4.683" opacity=".6"/><path stroke="#424928" stroke-width=".417" d="M131.114 138.425a9.478 9.478 0 0 1 4.685-2.604c.72-.206 1.45-.375 2.188-.503l.679-.099h.154a.652.652 0 0 0 0 .153v.679c.038.755.038 1.51 0 2.265a9.466 9.466 0 0 1-1.511 5.177 5.15 5.15 0 0 1-3.196 2.112 4.182 4.182 0 0 1-4.454-3.546 5.088 5.088 0 0 1 1.455-3.634Z" opacity=".6"/><path stroke="#424928" stroke-width=".417" d="M132.735 139.793s-.47 1.97.296 2.584c.767.612 2.189-.242 2.189-.242" opacity=".6"/></g></svg>
